<svg xmlns="http://www.w3.org/2000/svg" viewBox="0 0 13.94 42.81" fill="#FBB040">
  <path d="m5 5.3s.86-3.81-4-5.3c0 0-1 4.26 4 5.3zm1.31 2.94s-1.19-3.75-6.09-2.58c0 0 1.33 4.21 6.09 2.58zm1.21-6.65s-3.26 2.2-.68 6.53c0 0 3.65-2.46.68-6.53zm-5 7.47s.83 4.34 5.76 3.27c-.04 0-.79-3.86-5.8-3.27zm6.3 3.21s3.91-2 1.43-6.41c-.04 0-3.54 1.81-1.47 6.41zm.58 4.46s0-3.93-5.09-4.23c-.04 0 .01 4.41 5.05 4.23zm.54 0s4.23-1.3 2.56-6c-.04-.01-3.81 1.14-2.6 6.04zm-4.83-.36s-.48 4.38 4.55 4.81c-.04.04.39-3.86-4.59-4.77zm5.08 4.91s4.35-.78 3.27-5.69c-.04.04-3.92.74-3.31 5.73zm-4.57-1s-1.12 4.35 3.81 5.45c0 0 .96-3.8-3.85-5.37zm4.36 5.55s4.42-.18 4-5.19c.02.08-3.98.24-4.04 5.27zm-4.28-1.83s-1.94 3.95 2.66 6c0 .08 1.73-3.43-2.66-6zm3.13 6.32s4.37.73 5-4.24c.01.04-3.83-.61-5 4.28zm-2.12 4.11s2.35-3.14-1.51-6.43c0 0-2.63 3.54 1.51 6.43zm.42.36s4.16 1.51 5.71-3.26c0 0-3.72-1.35-5.71 3.26zm-3.3-3s-3.12 3.11.57 6.56c0 .03 2.78-2.74-.57-6.53zm1 6.71s3.91 2.09 6.13-2.4c-.03.03-3.51-1.83-6.16 2.43zm-2.94-3.22s-3.67 2.43-.73 6.53c0 0 3.27-2.16.73-6.53zm-.37 6.72s3.42 2.86 6.48-1.1c0 0-3-2.51-6.48 1.1z" transform="translate(-.02 .02)"></path>
</svg>
