<svg xmlns="http://www.w3.org/2000/svg" viewBox="0 0 13.94 42.81">
  <path fill="#FBB040" d="m13.57.45c-4.82 1.55-3.91 5.29-3.91 5.29 4.93-1.03 3.91-5.29 3.91-5.29zm.81 5.65c-4.9-1.16-6.08 2.57-6.08 2.57 4.7 1.62 6.08-2.57 6.08-2.57zm-6.61 2.45c2.57-4.32-.68-6.5-.68-6.5-2.97 4.05.68 6.5.68 6.5zm-1.39 4.19c4.91 1.06 5.74-3.25 5.74-3.25-5-.6-5.74 3.25-5.74 3.25zm-.54-.06c2.06-4.58-1.43-6.38-1.43-6.38-2.48 4.37 1.43 6.38 1.43 6.38zm4.49.22c-5 .3-5.08 4.21-5.08 4.21 5.03.18 5.08-4.21 5.08-4.21zm-5.62 4.25c1.21-4.87-2.54-6-2.54-6-1.67 4.71 2.54 6 2.54 6zm.29 4.43c5-.43 4.53-4.78 4.53-4.78-4.96.9-4.53 4.78-4.53 4.78zm-.54.1c.61-4.97-3.26-5.68-3.26-5.68-1.08 4.9 3.26 5.68 3.26 5.68zm4.54-.95c-4.8 1.56-3.84 5.34-3.84 5.34 4.94-1.07 3.84-5.34 3.84-5.34zm-4.33 5.52c-.08-5-4-5.17-4-5.17-.41 4.99 4 5.17 4 5.17zm4.24-1.86c-4.38 2.51-2.66 6-2.66 6 4.59-2.07 2.66-6 2.66-6zm-3.12 6.29c-1.12-4.87-5-4.23-5-4.23.64 4.95 5 4.23 5 4.23zm3.62-2.33c-3.85 3.25-1.51 6.37-1.51 6.37 4.1-2.87 1.51-6.37 1.51-6.37zm-1.93 6.73c-2-4.58-5.7-3.24-5.7-3.24 1.54 4.74 5.7 3.24 5.7 3.24zm3.29-2.95c-3.34 3.77-.57 6.52-.57 6.52 3.68-3.43.57-6.52.57-6.52zm-1 6.68c-2.64-4.24-6.12-2.39-6.12-2.39 2.25 4.47 6.15 2.39 6.15 2.39zm2.91-3.24c-2.54 4.34.73 6.5.73 6.5 2.96-4.07-.7-6.5-.7-6.5zm-6.08 5.59c3.06 3.94 6.48 1.14 6.48 1.14-3.43-3.64-6.48-1.14-6.48-1.14z" />
</svg>
